<svg class="ndkYE2hc8Y-V3NHpSYvxA" xmlns="http://www.w3.org/2000/svg" viewBox="0 0 16 17" version="1.1"><path d="M8.566 5.835l2.4 2.4a.8.8 0 0 1-1.132 1.131L8.8 8.332V13.6a.8.8 0 1 1-1.6 0V8.332L6.166 9.366a.8.8 0 0 1-1.132-1.131l2.4-2.4a.803.803 0 0 1 1.132 0zm3.091-2.292A3.547 3.547 0 0 1 15.2 7.085a.8.8 0 0 1-1.6 0 1.945 1.945 0 0 0-2.318-1.904.802.802 0 0 1-.869-.43A4.206 4.206 0 0 0 6.628 2.4 4.233 4.233 0 0 0 2.4 6.629a.8.8 0 0 1-1.6 0A5.835 5.835 0 0 1 6.628.799a5.788 5.788 0 0 1 4.941 2.745l.088-.001z" id="a"></path></svg>